# xmcd CD database file
#
# Track frame offsets:
#	150
#	19987
#	51867
#	70775
#	90202
#	110801
#	134001
#	156600
#	188610
#	224329
#	251650
#	280801
#	301839
#
# Disc length: 4262 seconds
#
# Revision: 0
# Processed by: cddbd v1.5.1PL2 Copyright (c) Steve Scherf et al.
# Submitted via: CDex 1.50
#
DISCID=bd10a40d
DTITLE=Gerry Mulligan - Mosaic Select 21 - Gerry Mulligan Disc 2
DYEAR=2005
DGENRE=Jazz
TTITLE0=Four and One Moore
TTITLE1=Crazy Day
TTITLE2=Turnstile
TTITLE3=Sextet
TTITLE4=Disc Jockey Jump (full version)
TTITLE5=Venus De Milo
TTITLE6=Revelation
TTITLE7=Crazy Day (Mono take)
TTITLE8=Turnstile (Mono take)
TTITLE9=May-Reh
TTITLE10=The Preacher
TTITLE11=Good Bait
TTITLE12=Bags' Groove
EXTD=YEAR: 2005
EXTT0=
EXTT1=
EXTT2=
EXTT3=
EXTT4=
EXTT5=
EXTT6=
EXTT7=
EXTT8=
EXTT9=
EXTT10=
EXTT11=
EXTT12=
PLAYORDER=
